<svg width="1100" height="760" viewBox="0 0 1100 760" fill="none" xmlns="http://www.w3.org/2000/svg" role="img" aria-label="Research mentorship illustration">
  <defs><linearGradient id="g" x1="0" y1="0" x2="1100" y2="760" gradientUnits="userSpaceOnUse"><stop stop-color="#1F6FA9"/><stop offset="1" stop-color="#58B957"/></linearGradient><filter id="s" x="-20%" y="-20%" width="140%" height="140%"><feDropShadow dx="0" dy="22" stdDeviation="28" flood-opacity=".22"/></filter></defs>
  <rect width="1100" height="760" rx="54" fill="url(#g)"/>
  <circle cx="890" cy="90" r="168" fill="white" opacity=".12"/>
  <circle cx="140" cy="650" r="210" fill="white" opacity=".10"/>
  <g filter="url(#s)"><rect x="130" y="130" width="840" height="500" rx="38" fill="white" opacity=".96"/></g>
  <rect x="190" y="205" width="340" height="28" rx="14" fill="#1F6FA9" opacity=".92"/>
  <rect x="190" y="263" width="700" height="22" rx="11" fill="#E6F0F7"/>
  <rect x="190" y="312" width="630" height="22" rx="11" fill="#E6F0F7"/>
  <rect x="190" y="362" width="500" height="22" rx="11" fill="#E6F0F7"/>
  <rect x="190" y="440" width="230" height="76" rx="24" fill="#58B957"/>
  <rect x="458" y="440" width="230" height="76" rx="24" fill="#1F6FA9"/>
  <rect x="726" y="440" width="164" height="76" rx="24" fill="#E8F6EB"/>
  <text x="190" y="590" font-family="Arial, Helvetica, sans-serif" font-size="48" font-weight="800" fill="#153B63">Mentorship</text>
</svg>
