<svg width="1100" height="760" viewBox="0 0 1100 760" fill="none" xmlns="http://www.w3.org/2000/svg" role="img" aria-label="Research and innovation illustration">
  <defs><linearGradient id="g" x1="50" y1="0" x2="1000" y2="760" gradientUnits="userSpaceOnUse"><stop stop-color="#153B63"/><stop offset="1" stop-color="#1F6FA9"/></linearGradient><filter id="s" x="-20%" y="-20%" width="140%" height="140%"><feDropShadow dx="0" dy="22" stdDeviation="28" flood-opacity=".24"/></filter></defs>
  <rect width="1100" height="760" rx="54" fill="url(#g)"/>
  <path d="M167 538C260 399 326 341 443 357C560 372 623 472 731 430C839 389 896 253 1001 202" stroke="white" stroke-width="18" stroke-linecap="round" opacity=".25"/>
  <g filter="url(#s)"><rect x="150" y="128" width="800" height="504" rx="40" fill="white" opacity=".96"/></g>
  <circle cx="335" cy="322" r="106" fill="#E8F6EB"/>
  <path d="M286 323h32l22-53 36 116 25-63h44" stroke="#58B957" stroke-width="16" stroke-linecap="round" stroke-linejoin="round"/>
  <rect x="520" y="225" width="290" height="32" rx="16" fill="#153B63"/>
  <rect x="520" y="298" width="390" height="24" rx="12" fill="#E6F0F7"/>
  <rect x="520" y="352" width="330" height="24" rx="12" fill="#E6F0F7"/>
  <rect x="520" y="438" width="120" height="120" rx="28" fill="#1F6FA9" opacity=".9"/>
  <rect x="670" y="438" width="120" height="120" rx="28" fill="#58B957" opacity=".9"/>
  <text x="190" y="590" font-family="Arial, Helvetica, sans-serif" font-size="48" font-weight="800" fill="#153B63">Research</text>
</svg>
